<svg width="1587" height="343" viewBox="0 0 1587 343" fill="none" xmlns="http://www.w3.org/2000/svg">
<path d="M487.531 23.3998H501.576V81.954H572.563V23.3998H586.608V163H572.563V95.6199H501.576V163H487.531V23.3998ZM667.274 57.0898C683.155 57.0898 696.314 62.8472 706.754 74.3619C716.244 84.8644 720.989 97.2965 720.989 111.658C720.989 126.083 715.959 138.705 705.899 149.524C695.903 160.279 683.028 165.657 667.274 165.657C651.458 165.657 638.519 160.279 628.46 149.524C618.463 138.705 613.465 126.083 613.465 111.658C613.465 97.3597 618.21 84.9593 627.701 74.4568C638.14 62.8788 651.331 57.0898 667.274 57.0898ZM667.274 70.0913C656.266 70.0913 646.807 74.1721 638.899 82.3336C630.99 90.4952 627.036 100.365 627.036 111.943C627.036 119.409 628.839 126.368 632.446 132.821C636.052 139.275 640.923 144.273 647.06 147.816C653.197 151.295 659.935 153.035 667.274 153.035C674.614 153.035 681.352 151.295 687.489 147.816C693.625 144.273 698.497 139.275 702.103 132.821C705.71 126.368 707.513 119.409 707.513 111.943C707.513 100.365 703.527 90.4952 695.555 82.3336C687.647 74.1721 678.22 70.0913 667.274 70.0913ZM745.663 59.7471H758.854V77.5886C763.473 71.0087 768.218 66.2004 773.09 63.1635C779.796 59.1144 786.85 57.0898 794.253 57.0898C799.251 57.0898 803.996 58.0705 808.488 60.0318C812.98 61.9931 816.65 64.6187 819.497 67.9086C822.344 71.1353 824.811 75.7854 826.899 81.8591C831.328 73.7609 836.864 67.6239 843.507 63.4482C850.15 59.2093 857.299 57.0898 864.954 57.0898C872.104 57.0898 878.399 58.893 883.84 62.4992C889.344 66.1055 893.425 71.1353 896.082 77.5886C898.739 84.0419 900.068 93.7218 900.068 106.628V163H886.497V106.628C886.497 95.5566 885.706 87.9645 884.125 83.8521C882.543 79.6764 879.822 76.3232 875.963 73.7925C872.167 71.2618 867.612 69.9964 862.297 69.9964C855.844 69.9964 849.928 71.8945 844.551 75.6905C839.236 79.4866 835.345 84.548 832.878 90.8748C830.41 97.2016 829.177 107.767 829.177 122.572V163H815.985V110.14C815.985 97.6761 815.194 89.2298 813.613 84.8011C812.094 80.3091 809.405 76.7345 805.546 74.0772C801.687 71.3567 797.1 69.9964 791.785 69.9964C785.648 69.9964 779.891 71.8628 774.513 75.5956C769.199 79.2652 765.245 84.2317 762.651 90.4952C760.12 96.7587 758.854 106.344 758.854 119.25V163H745.663V59.7471ZM1015.09 128.741L1026.29 134.624C1022.62 141.837 1018.38 147.658 1013.57 152.086C1008.76 156.515 1003.35 159.9 997.342 162.241C991.332 164.518 984.531 165.657 976.938 165.657C960.109 165.657 946.949 160.153 937.459 149.144C927.969 138.073 923.224 125.577 923.224 111.658C923.224 98.5618 927.242 86.8889 935.277 76.6396C945.463 63.6064 959.097 57.0898 976.179 57.0898C993.768 57.0898 1007.81 63.7646 1018.32 77.1141C1025.78 86.541 1029.58 98.3087 1029.7 112.417H936.89C937.143 124.438 940.971 134.308 948.373 142.027C955.775 149.682 964.918 153.51 975.8 153.51C981.051 153.51 986.144 152.592 991.079 150.758C996.077 148.923 1000.32 146.487 1003.8 143.45C1007.28 140.413 1011.04 135.51 1015.09 128.741ZM1015.09 100.934C1013.32 93.8484 1010.72 88.1859 1007.31 83.947C1003.95 79.708 999.493 76.2916 993.926 73.6976C988.358 71.1036 982.506 69.8066 976.369 69.8066C966.246 69.8066 957.547 73.0649 950.271 79.5815C944.957 84.3266 940.939 91.4442 938.219 100.934H1015.09ZM1046.12 23.3998H1061.31L1107.52 131.303L1154.59 23.3998H1169.78L1109.04 163H1106L1046.12 23.3998ZM1195.69 17.2312C1198.72 17.2312 1201.32 18.3067 1203.47 20.4578C1205.62 22.6089 1206.7 25.2029 1206.7 28.2397C1206.7 31.2133 1205.62 33.7757 1203.47 35.9268C1201.32 38.0779 1198.72 39.1534 1195.69 39.1534C1192.71 39.1534 1190.15 38.0779 1188 35.9268C1185.85 33.7757 1184.77 31.2133 1184.77 28.2397C1184.77 25.2029 1185.85 22.6089 1188 20.4578C1190.15 18.3067 1192.71 17.2312 1195.69 17.2312ZM1189.04 59.7471H1202.42V163H1189.04V59.7471ZM1281.86 71.0404L1273.32 79.8662C1266.23 72.97 1259.3 69.5219 1252.53 69.5219C1248.23 69.5219 1244.53 70.9455 1241.43 73.7925C1238.39 76.6396 1236.87 79.9611 1236.87 83.7572C1236.87 87.1104 1238.14 90.3054 1240.67 93.3422C1243.2 96.4424 1248.52 100.08 1256.61 104.256C1266.48 109.381 1273.19 114.315 1276.73 119.061C1280.21 123.869 1281.95 129.278 1281.95 135.289C1281.95 143.767 1278.98 150.947 1273.03 156.831C1267.08 162.715 1259.65 165.657 1250.73 165.657C1244.78 165.657 1239.09 164.36 1233.65 161.766C1228.27 159.172 1223.81 155.598 1220.27 151.042L1228.62 141.552C1235.39 149.208 1242.57 153.035 1250.16 153.035C1255.47 153.035 1260 151.327 1263.73 147.911C1267.46 144.494 1269.33 140.477 1269.33 135.858C1269.33 132.062 1268.1 128.677 1265.63 125.704C1263.16 122.793 1257.59 119.124 1248.93 114.695C1239.63 109.887 1233.3 105.142 1229.95 100.46C1226.59 95.778 1224.92 90.4319 1224.92 84.4215C1224.92 76.5763 1227.57 70.0597 1232.89 64.8718C1238.27 59.6838 1245.04 57.0898 1253.2 57.0898C1262.69 57.0898 1272.24 61.74 1281.86 71.0404ZM1310.14 17.2312C1313.17 17.2312 1315.77 18.3067 1317.92 20.4578C1320.07 22.6089 1321.15 25.2029 1321.15 28.2397C1321.15 31.2133 1320.07 33.7757 1317.92 35.9268C1315.77 38.0779 1313.17 39.1534 1310.14 39.1534C1307.16 39.1534 1304.6 38.0779 1302.45 35.9268C1300.3 33.7757 1299.22 31.2133 1299.22 28.2397C1299.22 25.2029 1300.3 22.6089 1302.45 20.4578C1304.6 18.3067 1307.16 17.2312 1310.14 17.2312ZM1303.49 59.7471H1316.88V163H1303.49V59.7471ZM1393.27 57.0898C1409.15 57.0898 1422.31 62.8472 1432.75 74.3619C1442.24 84.8644 1446.99 97.2965 1446.99 111.658C1446.99 126.083 1441.96 138.705 1431.9 149.524C1421.9 160.279 1409.03 165.657 1393.27 165.657C1377.45 165.657 1364.52 160.279 1354.46 149.524C1344.46 138.705 1339.46 126.083 1339.46 111.658C1339.46 97.3597 1344.21 84.9593 1353.7 74.4568C1364.14 62.8788 1377.33 57.0898 1393.27 57.0898ZM1393.27 70.0913C1382.26 70.0913 1372.8 74.1721 1364.9 82.3336C1356.99 90.4952 1353.03 100.365 1353.03 111.943C1353.03 119.409 1354.84 126.368 1358.44 132.821C1362.05 139.275 1366.92 144.273 1373.06 147.816C1379.19 151.295 1385.93 153.035 1393.27 153.035C1400.61 153.035 1407.35 151.295 1413.49 147.816C1419.62 144.273 1424.49 139.275 1428.1 132.821C1431.71 126.368 1433.51 119.409 1433.51 111.943C1433.51 100.365 1429.52 90.4952 1421.55 82.3336C1413.64 74.1721 1404.22 70.0913 1393.27 70.0913ZM1471.76 59.7471H1485.04V78.2529C1490.36 71.1669 1496.24 65.884 1502.69 62.4043C1509.15 58.8613 1516.17 57.0898 1523.76 57.0898C1531.48 57.0898 1538.31 59.0511 1544.26 62.9737C1550.27 66.8963 1554.7 72.1792 1557.55 78.8223C1560.39 85.4654 1561.82 95.8097 1561.82 109.855V163H1548.63V113.746C1548.63 101.852 1548.12 93.9116 1547.11 89.9258C1545.53 83.0929 1542.55 77.9682 1538.19 74.5517C1533.82 71.072 1528.13 69.3321 1521.1 69.3321C1513.07 69.3321 1505.86 71.9894 1499.47 77.3039C1493.14 82.6184 1488.96 89.1982 1486.94 97.0434C1485.67 102.168 1485.04 111.532 1485.04 125.134V163H1471.76V59.7471Z" fill="white"/>
<path d="M483.106 282.589L489.332 278.854C493.715 286.923 498.778 290.957 504.523 290.957C506.98 290.957 509.288 290.392 511.446 289.263C513.604 288.101 515.248 286.557 516.377 284.631C517.506 282.706 518.07 280.663 518.07 278.505C518.07 276.048 517.24 273.641 515.58 271.283C513.289 268.029 509.105 264.111 503.028 259.529C496.919 254.914 493.117 251.576 491.623 249.518C489.033 246.065 487.738 242.329 487.738 238.311C487.738 235.124 488.502 232.218 490.029 229.595C491.556 226.972 493.698 224.913 496.454 223.419C499.243 221.892 502.265 221.128 505.519 221.128C508.972 221.128 512.193 221.991 515.181 223.718C518.203 225.411 521.39 228.549 524.744 233.131L518.767 237.664C516.011 234.011 513.654 231.604 511.695 230.442C509.769 229.28 507.66 228.699 505.369 228.699C502.414 228.699 499.99 229.595 498.098 231.388C496.238 233.181 495.308 235.389 495.308 238.013C495.308 239.606 495.641 241.15 496.305 242.645C496.969 244.139 498.181 245.766 499.94 247.526C500.903 248.455 504.058 250.896 509.404 254.847C515.746 259.529 520.096 263.696 522.453 267.349C524.811 271.001 525.989 274.67 525.989 278.356C525.989 283.668 523.964 288.284 519.913 292.202C515.895 296.12 510.998 298.079 505.22 298.079C500.771 298.079 496.736 296.9 493.117 294.543C489.498 292.152 486.161 288.168 483.106 282.589ZM648.607 240.652C656.941 240.652 663.848 243.674 669.326 249.717C674.307 255.229 676.797 261.754 676.797 269.291C676.797 276.862 674.158 283.486 668.878 289.164C663.632 294.809 656.875 297.631 648.607 297.631C640.306 297.631 633.516 294.809 628.236 289.164C622.99 283.486 620.367 276.862 620.367 269.291C620.367 261.787 622.857 255.279 627.838 249.767C633.316 243.69 640.239 240.652 648.607 240.652ZM648.607 247.476C642.829 247.476 637.865 249.617 633.715 253.901C629.564 258.184 627.489 263.364 627.489 269.44C627.489 273.359 628.435 277.011 630.328 280.398C632.221 283.785 634.777 286.408 637.998 288.267C641.219 290.094 644.755 291.007 648.607 291.007C652.459 291.007 655.995 290.094 659.216 288.267C662.437 286.408 664.993 283.785 666.886 280.398C668.779 277.011 669.725 273.359 669.725 269.44C669.725 263.364 667.633 258.184 663.449 253.901C659.299 249.617 654.351 247.476 648.607 247.476ZM771.374 221.128H778.347V296.236H771.374V221.128ZM874.567 242.047H881.59V267.349C881.59 273.525 881.922 277.775 882.586 280.099C883.582 283.419 885.475 286.043 888.264 287.968C891.086 289.894 894.44 290.857 898.325 290.857C902.21 290.857 905.497 289.928 908.187 288.068C910.909 286.175 912.785 283.702 913.815 280.647C914.512 278.555 914.861 274.122 914.861 267.349V242.047H921.983V268.644C921.983 276.114 921.103 281.743 919.343 285.528C917.617 289.313 914.993 292.285 911.474 294.443C907.987 296.568 903.604 297.631 898.325 297.631C893.045 297.631 888.629 296.568 885.076 294.443C881.557 292.285 878.917 289.297 877.157 285.478C875.43 281.626 874.567 275.849 874.567 268.145V242.047ZM1026.22 221.925H1033.24V242.047H1044.3V248.024H1033.24V296.236H1026.22V248.024H1016.71V242.047H1026.22V221.925ZM1139.77 219.734C1141.37 219.734 1142.73 220.298 1143.86 221.427C1144.99 222.556 1145.55 223.917 1145.55 225.511C1145.55 227.072 1144.99 228.416 1143.86 229.545C1142.73 230.674 1141.37 231.239 1139.77 231.239C1138.21 231.239 1136.87 230.674 1135.74 229.545C1134.61 228.416 1134.05 227.072 1134.05 225.511C1134.05 223.917 1134.61 222.556 1135.74 221.427C1136.87 220.298 1138.21 219.734 1139.77 219.734ZM1136.29 242.047H1143.31V296.236H1136.29V242.047ZM1266.03 240.652C1274.36 240.652 1281.27 243.674 1286.75 249.717C1291.73 255.229 1294.22 261.754 1294.22 269.291C1294.22 276.862 1291.58 283.486 1286.3 289.164C1281.05 294.809 1274.3 297.631 1266.03 297.631C1257.73 297.631 1250.94 294.809 1245.66 289.164C1240.41 283.486 1237.79 276.862 1237.79 269.291C1237.79 261.787 1240.28 255.279 1245.26 249.767C1250.74 243.69 1257.66 240.652 1266.03 240.652ZM1266.03 247.476C1260.25 247.476 1255.29 249.617 1251.14 253.901C1246.99 258.184 1244.91 263.364 1244.91 269.44C1244.91 273.359 1245.86 277.011 1247.75 280.398C1249.64 283.785 1252.2 286.408 1255.42 288.267C1258.64 290.094 1262.18 291.007 1266.03 291.007C1269.88 291.007 1273.42 290.094 1276.64 288.267C1279.86 286.408 1282.41 283.785 1284.31 280.398C1286.2 277.011 1287.15 273.359 1287.15 269.44C1287.15 263.364 1285.05 258.184 1280.87 253.901C1276.72 249.617 1271.77 247.476 1266.03 247.476ZM1389.84 242.047H1396.81V251.759C1399.6 248.04 1402.69 245.268 1406.08 243.441C1409.47 241.582 1413.15 240.652 1417.14 240.652C1421.19 240.652 1424.77 241.682 1427.89 243.74C1431.05 245.799 1433.37 248.571 1434.87 252.058C1436.36 255.544 1437.11 260.973 1437.11 268.345V296.236H1430.18V270.387C1430.18 264.144 1429.92 259.977 1429.39 257.885C1428.56 254.299 1427 251.61 1424.71 249.817C1422.41 247.99 1419.43 247.077 1415.74 247.077C1411.52 247.077 1407.74 248.472 1404.38 251.261C1401.06 254.05 1398.87 257.503 1397.81 261.621C1397.15 264.31 1396.81 269.225 1396.81 276.364V296.236H1389.84V242.047ZM1561.97 247.974L1557.48 252.606C1553.77 248.987 1550.13 247.177 1546.58 247.177C1544.32 247.177 1542.38 247.924 1540.75 249.418C1539.16 250.912 1538.36 252.656 1538.36 254.648C1538.36 256.408 1539.02 258.085 1540.35 259.678C1541.68 261.305 1544.47 263.215 1548.72 265.406C1553.9 268.096 1557.42 270.686 1559.28 273.176C1561.1 275.699 1562.02 278.538 1562.02 281.693C1562.02 286.142 1560.46 289.911 1557.33 292.999C1554.21 296.087 1550.31 297.631 1545.63 297.631C1542.51 297.631 1539.52 296.95 1536.67 295.589C1533.84 294.227 1531.5 292.351 1529.64 289.961L1534.03 284.98C1537.58 288.998 1541.35 291.007 1545.33 291.007C1548.12 291.007 1550.49 290.11 1552.45 288.317C1554.41 286.524 1555.39 284.416 1555.39 281.992C1555.39 279.999 1554.74 278.223 1553.45 276.662C1552.15 275.135 1549.23 273.209 1544.68 270.885C1539.8 268.361 1536.48 265.871 1534.72 263.414C1532.96 260.957 1532.08 258.151 1532.08 254.997C1532.08 250.879 1533.48 247.459 1536.27 244.736C1539.09 242.014 1542.64 240.652 1546.93 240.652C1551.91 240.652 1556.92 243.093 1561.97 247.974Z" fill="white"/>
<path d="M15.9294 135.196L0 122.876C24.8365 90.7295 57.109 64.1346 93.3121 45.9641C131.285 26.8971 172.235 17.2314 215.012 17.2314C299.589 17.2314 377.846 55.6067 429.737 122.519L413.819 134.863C365.766 72.9038 293.303 37.3788 215.001 37.3788C136.698 37.3788 63.9703 73.0302 15.9294 135.196Z" fill="#CA9D76"/>
<path d="M91.68 189.835L75.7506 177.514C109.345 134.048 160.087 109.119 214.954 109.119C269.822 109.119 320.38 133.967 353.974 177.284L338.057 189.628C308.301 151.264 263.432 129.266 214.943 129.266C166.454 129.266 121.424 151.345 91.6685 189.835H91.68Z" fill="#CA9D76"/>
<path d="M164.672 245.137L148.743 232.817C164.707 212.164 188.819 200.314 214.897 200.314C240.975 200.314 265.007 212.118 280.97 232.702L265.052 245.045C252.927 229.415 234.653 220.45 214.897 220.45C195.14 220.45 176.797 229.449 164.672 245.126V245.137Z" fill="#CA9D76"/>
<path d="M214.862 298.431C208.897 298.431 204.058 293.581 204.058 287.628C204.058 281.674 208.908 276.824 214.862 276.824C220.815 276.824 225.665 281.674 225.665 287.628C225.665 293.581 220.815 298.431 214.862 298.431Z" fill="#CA9D76"/>
</svg>
